<svg xmlns="http://www.w3.org/2000/svg" xmlns:xlink="http://www.w3.org/1999/xlink" width="2000" zoomAndPan="magnify" viewBox="0 0 1500 591.000005" height="788" preserveAspectRatio="xMidYMid meet" version="1.0"><defs><g/><clipPath id="352e86dc21"><path d="M 1.265625 26 L 717 26 L 717 515 L 1.265625 515 Z M 1.265625 26 " clip-rule="nonzero"/></clipPath></defs><g clip-path="url(#352e86dc21)"><g fill="#ffffff" fill-opacity="1"><g transform="translate(55.364553, 434.710236)"><g><path d="M 650.953125 -363.65625 C 653.140625 -361.8125 655.113281 -359.734375 656.875 -357.421875 C 658.632812 -355.109375 659.769531 -352.359375 660.28125 -349.171875 C 660.863281 -345.640625 659.601562 -342.945312 656.5 -341.09375 C 654.644531 -340.175781 652.835938 -340.050781 651.078125 -340.71875 C 649.316406 -341.394531 648.054688 -342.738281 647.296875 -344.75 C 645.285156 -350.300781 642.238281 -354.691406 638.15625 -357.921875 C 634.082031 -361.160156 629.65625 -363.992188 624.875 -366.421875 C 614.289062 -371.972656 603.367188 -376.488281 592.109375 -379.96875 C 580.847656 -383.457031 569.503906 -386.503906 558.078125 -389.109375 C 539.015625 -393.140625 513.625 -395.765625 481.90625 -396.984375 C 450.195312 -398.203125 414.894531 -397.738281 376 -395.59375 C 337.101562 -393.457031 297.285156 -389.300781 256.546875 -383.125 C 215.804688 -376.945312 176.804688 -368.460938 139.546875 -357.671875 C 102.296875 -346.878906 69.578125 -333.4375 41.390625 -317.34375 C 13.210938 -301.257812 -7.804688 -282.296875 -21.671875 -260.453125 C -33.265625 -241.472656 -35.578125 -221.4375 -28.609375 -200.34375 C -23.566406 -185.894531 -16.34375 -172.75 -6.9375 -160.90625 C 7.09375 -143.1875 22.632812 -126.929688 39.6875 -112.140625 C 54.050781 -99.035156 68.546875 -85.929688 83.171875 -72.828125 C 97.359375 -60.234375 111.59375 -47.46875 125.875 -34.53125 C 141.757812 -19.90625 157.382812 -5.117188 172.75 9.828125 C 174.175781 11.253906 175.648438 12.640625 177.171875 13.984375 C 185.484375 21.710938 192.789062 30.28125 199.09375 39.6875 C 205.5625 50.445312 206.800781 58.785156 202.8125 64.703125 C 198.820312 70.628906 191.238281 74.640625 180.0625 76.734375 C 168.894531 78.835938 155.914062 79.488281 141.125 78.6875 C 126.34375 77.894531 111.453125 76.046875 96.453125 73.140625 C 81.460938 70.242188 68.148438 66.78125 56.515625 62.75 C 44.878906 58.71875 36.664062 54.5625 31.875 50.28125 C 22.300781 41.375 21.671875 31.960938 29.984375 22.046875 C 38.972656 11.878906 49.9375 4.488281 62.875 -0.125 C 81.613281 -7.351562 100.554688 -7.941406 119.703125 -1.890625 C 123.398438 -0.546875 126.929688 1.21875 130.296875 3.40625 C 130.628906 3.570312 130.921875 3.78125 131.171875 4.03125 C 132.097656 4.53125 132.726562 5.285156 133.0625 6.296875 C 133.394531 7.304688 133.226562 8.398438 132.5625 9.578125 C 131.050781 11.421875 129.203125 11.96875 127.015625 11.21875 C 124.910156 10.457031 122.9375 9.53125 121.09375 8.4375 C 107.820312 1.800781 94.171875 0.414062 80.140625 4.28125 C 66.109375 8.144531 54.265625 15.789062 44.609375 27.21875 C 40.410156 32.757812 40.195312 37.609375 43.96875 41.765625 C 47.75 45.929688 53.523438 49.460938 61.296875 52.359375 C 69.066406 55.253906 76.878906 57.519531 84.734375 59.15625 C 92.585938 60.800781 98.445312 61.914062 102.3125 62.5 C 103.070312 62.5 103.617188 62.582031 103.953125 62.75 C 104.710938 62.75 105.640625 62.832031 106.734375 63 C 111.679688 64.09375 118.460938 65.25 127.078125 66.46875 C 135.691406 67.6875 144.578125 68.523438 153.734375 68.984375 C 162.890625 69.453125 170.742188 68.84375 177.296875 67.15625 C 183.847656 65.476562 187.539062 62.242188 188.375 57.453125 C 189.21875 52.671875 185.566406 45.570312 177.421875 36.15625 C 168.765625 26.164062 159.609375 16.46875 149.953125 7.0625 C 125.921875 -16.207031 101.265625 -38.765625 75.984375 -60.609375 C 66.910156 -68.753906 57.835938 -76.90625 48.765625 -85.0625 C 33.640625 -98.664062 18.769531 -112.609375 4.15625 -126.890625 C -9.363281 -139.992188 -21.289062 -154.398438 -31.625 -170.109375 C -39.019531 -181.535156 -44.1875 -193.84375 -47.125 -207.03125 C -51.582031 -228.613281 -47.59375 -248.566406 -35.15625 -266.890625 C -21.550781 -287.378906 -1.8125 -305.519531 24.0625 -321.3125 C 49.9375 -337.101562 79.925781 -350.585938 114.03125 -361.765625 C 148.132812 -372.941406 184.46875 -381.992188 223.03125 -388.921875 C 261.59375 -395.847656 300.550781 -400.757812 339.90625 -403.65625 C 379.257812 -406.5625 416.992188 -407.550781 453.109375 -406.625 C 489.234375 -405.695312 521.929688 -402.960938 551.203125 -398.421875 C 580.484375 -393.890625 604.492188 -387.632812 623.234375 -379.65625 C 633.140625 -375.789062 642.378906 -370.457031 650.953125 -363.65625 Z M 650.953125 -363.65625 "/></g></g><g transform="translate(241.095997, 434.710236)"><g><path d="M 91.40625 -64.203125 C 93.382812 -63.066406 93.535156 -60.316406 91.859375 -55.953125 C 89.421875 -52.753906 86.816406 -49.769531 84.046875 -47 C 81.273438 -44.226562 78.25 -41.75 74.96875 -39.5625 C 74.71875 -39.5625 74.59375 -39.476562 74.59375 -39.3125 C 72.40625 -37.800781 70.097656 -36.5 67.671875 -35.40625 C 47.585938 -28.1875 37.335938 -32.429688 36.921875 -48.140625 C 28.773438 -41.078125 23.316406 -36.75 20.546875 -35.15625 C 13.898438 -31.207031 6.710938 -29.441406 -1.015625 -29.859375 C -6.722656 -30.203125 -10.601562 -31.945312 -12.65625 -35.09375 C -14.71875 -38.238281 -14.53125 -42.5 -12.09375 -47.875 C -8.394531 -56.363281 -3.144531 -63.925781 3.65625 -70.5625 C 11.632812 -77.957031 20.492188 -83.878906 30.234375 -88.328125 C 35.441406 -90.929688 40.90625 -91.941406 46.625 -91.359375 C 52.332031 -91.015625 55.773438 -87.78125 56.953125 -81.65625 C 57.460938 -79.800781 57 -78.160156 55.5625 -76.734375 C 53.71875 -75.054688 51.578125 -74.679688 49.140625 -75.609375 C 48.972656 -75.609375 48.742188 -75.648438 48.453125 -75.734375 C 48.160156 -75.816406 47.925781 -75.941406 47.75 -76.109375 C 45.320312 -79.472656 42.867188 -80.878906 40.390625 -80.328125 C 37.910156 -79.785156 35.285156 -78.671875 32.515625 -76.984375 C 19.578125 -69.429688 9.957031 -58.890625 3.65625 -45.359375 C 3.320312 -44.773438 3.109375 -44.125 3.015625 -43.40625 C 2.929688 -42.695312 3.144531 -42.128906 3.65625 -41.703125 C 5.164062 -41.203125 6.84375 -41.304688 8.6875 -42.015625 C 10.539062 -42.734375 12.390625 -43.785156 14.234375 -45.171875 C 16.085938 -46.554688 17.644531 -47.710938 18.90625 -48.640625 C 19.070312 -48.890625 19.15625 -49.015625 19.15625 -49.015625 C 25.289062 -54.140625 31.296875 -59.390625 37.171875 -64.765625 C 39.773438 -67.535156 43.007812 -69.09375 46.875 -69.4375 C 52.414062 -69.4375 54.726562 -66.957031 53.8125 -62 C 53.300781 -60.144531 52.753906 -58.296875 52.171875 -56.453125 C 49.984375 -48.472656 49.894531 -43.789062 51.90625 -42.40625 C 53.925781 -41.019531 57.015625 -41.019531 61.171875 -42.40625 C 65.328125 -43.789062 69.484375 -46.4375 73.640625 -50.34375 C 77.804688 -54.25 81.316406 -57.816406 84.171875 -61.046875 C 87.023438 -64.285156 89.4375 -65.335938 91.40625 -64.203125 Z M 91.40625 -64.203125 "/></g></g></g></g><g fill="#ffffff" fill-opacity="1"><g transform="translate(324.637331, 434.710236)"><g><path d="M 50.078125 -53.109375 C 45.585938 -47.773438 40.273438 -42.878906 34.140625 -38.421875 C 28.015625 -33.972656 21.085938 -30.972656 13.359375 -29.421875 C 5.628906 -27.867188 -0.375 -28.4375 -4.65625 -31.125 C -8.945312 -33.8125 -9.789062 -39.773438 -7.1875 -49.015625 C -3.820312 -58.585938 0.796875 -67.703125 6.671875 -76.359375 C 8.015625 -78.203125 9.945312 -79.503906 12.46875 -80.265625 C 14.320312 -80.679688 15.941406 -80.363281 17.328125 -79.3125 C 18.710938 -78.269531 19.238281 -76.953125 18.90625 -75.359375 C 17.644531 -72.328125 16.253906 -69.300781 14.734375 -66.28125 C 13.222656 -63.257812 12.21875 -61.285156 11.71875 -60.359375 C 8.78125 -54.984375 6.722656 -49.351562 5.546875 -43.46875 C 5.546875 -40.113281 10.039062 -39.90625 19.03125 -42.84375 C 28.019531 -45.78125 36.753906 -51.175781 45.234375 -59.03125 C 53.722656 -66.882812 57.773438 -69.191406 57.390625 -65.953125 C 57.015625 -62.722656 54.578125 -58.441406 50.078125 -53.109375 Z M 28.09375 -95.265625 C 27.675781 -94.921875 26.816406 -94.519531 25.515625 -94.0625 C 24.210938 -93.601562 22.828125 -93.265625 21.359375 -93.046875 C 19.890625 -92.835938 18.734375 -93.066406 17.890625 -93.734375 C 17.054688 -94.410156 17.015625 -95.757812 17.765625 -97.78125 C 19.109375 -101.3125 20.515625 -104.398438 21.984375 -107.046875 C 23.453125 -109.691406 25.363281 -112.609375 27.71875 -115.796875 C 29.226562 -117.222656 30.863281 -118 32.625 -118.125 C 34.394531 -118.257812 35.867188 -117.800781 37.046875 -116.75 C 38.222656 -115.695312 38.554688 -114.242188 38.046875 -112.390625 C 36.203125 -105.753906 32.882812 -100.046875 28.09375 -95.265625 Z M 28.09375 -95.265625 "/></g></g></g><g fill="#ffffff" fill-opacity="1"><g transform="translate(373.779292, 434.710236)"><g><path d="M 99.796875 -62.875 C 101.140625 -61.195312 99.457031 -58.128906 94.75 -53.671875 C 90.050781 -49.222656 85.054688 -45.484375 79.765625 -42.453125 C 74.472656 -39.429688 68.335938 -36.410156 61.359375 -33.390625 C 56.742188 -31.378906 51.832031 -30.707031 46.625 -31.375 C 41.414062 -32.050781 38.8125 -35.203125 38.8125 -40.828125 C 38.8125 -46.453125 40.113281 -52.035156 42.71875 -57.578125 C 45.320312 -63.296875 45.890625 -66.238281 44.421875 -66.40625 C 42.953125 -66.570312 39.90625 -65.1875 35.28125 -62.25 C 23.269531 -54.351562 12.097656 -45.320312 1.765625 -35.15625 C -1.003906 -31.789062 -4.535156 -29.941406 -8.828125 -29.609375 C -11.003906 -29.609375 -12.703125 -30.300781 -13.921875 -31.6875 C -15.140625 -33.070312 -15.285156 -34.5625 -14.359375 -36.15625 C -6.972656 -49.851562 0.5 -63.378906 8.0625 -76.734375 C 9.738281 -79.503906 12.257812 -81.226562 15.625 -81.90625 C 17.050781 -82.15625 18.375 -81.710938 19.59375 -80.578125 C 20.8125 -79.441406 21.421875 -78.160156 21.421875 -76.734375 C 21.253906 -75.390625 20.707031 -73.796875 19.78125 -71.953125 C 19.363281 -70.859375 18.960938 -69.804688 18.578125 -68.796875 C 18.203125 -67.785156 18.078125 -66.941406 18.203125 -66.265625 C 18.328125 -65.597656 18.851562 -65.394531 19.78125 -65.65625 C 21.039062 -66.320312 22.300781 -67.035156 23.5625 -67.796875 C 26.757812 -69.640625 29.828125 -71.398438 32.765625 -73.078125 C 35.367188 -74.597656 38.097656 -75.941406 40.953125 -77.109375 C 43.804688 -78.285156 46.789062 -79.085938 49.90625 -79.515625 C 54.9375 -79.847656 58.503906 -78.710938 60.609375 -76.109375 C 62.710938 -73.503906 62.960938 -69.890625 61.359375 -65.265625 C 59.679688 -61.066406 57.921875 -56.910156 56.078125 -52.796875 C 53.804688 -48.929688 53.425781 -45.988281 54.9375 -43.96875 C 56.445312 -41.957031 63.460938 -44.269531 75.984375 -50.90625 L 85.4375 -56.453125 C 94.34375 -62.160156 99.128906 -64.300781 99.796875 -62.875 Z M 99.796875 -62.875 "/></g></g></g><g fill="#ffffff" fill-opacity="1"><g transform="translate(466.140984, 434.710236)"><g><path d="M 78.75 -60.859375 C 67.5 -47.585938 56.472656 -37.800781 45.671875 -31.5 C 34.878906 -25.195312 23.328125 -23.117188 11.015625 -25.265625 C -1.285156 -27.410156 -6.34375 -35.664062 -4.15625 -50.03125 C -2.644531 -57.25 -0.585938 -64.300781 2.015625 -71.1875 C 8.484375 -87.238281 15.035156 -103.203125 21.671875 -119.078125 C 23.859375 -124.785156 26.171875 -130.539062 28.609375 -136.34375 C 29.191406 -137.601562 29.734375 -138.863281 30.234375 -140.125 C 31.160156 -142.21875 32.085938 -144.359375 33.015625 -146.546875 C 34.359375 -150.242188 32.890625 -152.175781 28.609375 -152.34375 C 26.171875 -152.34375 23.773438 -152.34375 21.421875 -152.34375 C 20.328125 -152.34375 19.109375 -152.34375 17.765625 -152.34375 C 16.503906 -152.175781 15.203125 -152.007812 13.859375 -151.84375 C 11.671875 -151.675781 9.503906 -151.59375 7.359375 -151.59375 C 5.222656 -151.59375 3.234375 -152.132812 1.390625 -153.21875 C 0.878906 -153.394531 0.476562 -153.710938 0.1875 -154.171875 C -0.101562 -154.628906 -0.25 -155.15625 -0.25 -155.75 C -0.0820312 -156.082031 0.1875 -156.476562 0.5625 -156.9375 C 0.945312 -157.40625 1.429688 -157.722656 2.015625 -157.890625 C 3.859375 -158.640625 5.789062 -159.1875 7.8125 -159.53125 C 13.019531 -159.78125 18.1875 -159.988281 23.3125 -160.15625 C 25.320312 -160.15625 27.085938 -160.15625 28.609375 -160.15625 C 31.960938 -160.15625 34.457031 -160.28125 36.09375 -160.53125 C 37.738281 -160.78125 39.0625 -161.660156 40.0625 -163.171875 C 41.070312 -164.691406 42.25 -167.003906 43.59375 -170.109375 C 44.351562 -171.785156 45.28125 -173.632812 46.375 -175.65625 C 49.144531 -181.53125 51.914062 -187.535156 54.6875 -193.671875 C 55.945312 -196.441406 57.25 -199.128906 58.59375 -201.734375 C 59.6875 -204.335938 61.410156 -206.351562 63.765625 -207.78125 C 66.023438 -208.875 68 -208.789062 69.6875 -207.53125 C 70.1875 -207.195312 70.582031 -206.648438 70.875 -205.890625 C 71.164062 -205.140625 71.3125 -204.46875 71.3125 -203.875 C 71.3125 -200.601562 70.472656 -197.367188 68.796875 -194.171875 C 68.460938 -193.503906 68.085938 -192.707031 67.671875 -191.78125 C 66.578125 -188.757812 65.398438 -185.691406 64.140625 -182.578125 C 61.703125 -176.867188 59.390625 -171.03125 57.203125 -165.0625 C 56.617188 -163.976562 56.597656 -163.015625 57.140625 -162.171875 C 57.691406 -161.328125 58.507812 -160.90625 59.59375 -160.90625 C 65.5625 -160.738281 71.398438 -160.65625 77.109375 -160.65625 C 80.054688 -160.65625 83 -160.65625 85.9375 -160.65625 C 95.175781 -160.488281 98.875 -159.1875 97.03125 -156.75 C 95.769531 -155.320312 94.398438 -154.503906 92.921875 -154.296875 C 91.453125 -154.085938 89.960938 -154.109375 88.453125 -154.359375 C 87.535156 -154.359375 86.613281 -154.359375 85.6875 -154.359375 C 76.28125 -153.773438 66.957031 -153.394531 57.71875 -153.21875 C 53.425781 -153.21875 50.566406 -151.285156 49.140625 -147.421875 C 47.628906 -143.734375 46.160156 -140.039062 44.734375 -136.34375 C 42.628906 -131.46875 40.65625 -126.71875 38.8125 -122.09375 C 36.957031 -117.726562 35.109375 -113.320312 33.265625 -108.875 C 28.472656 -97.613281 23.851562 -86.3125 19.40625 -74.96875 C 16.632812 -67.582031 14.453125 -60.023438 12.859375 -52.296875 C 9.328125 -38.265625 14.742188 -32.882812 29.109375 -36.15625 C 43.222656 -39.519531 58.007812 -49.6875 73.46875 -66.65625 C 80.1875 -70.9375 81.945312 -69.003906 78.75 -60.859375 Z M 78.75 -60.859375 "/></g></g><g transform="translate(537.711853, 434.710236)"><g/></g></g><g fill="#ffffff" fill-opacity="1"><g transform="translate(632.971683, 434.710236)"><g><path d="M 353.453125 -375 C 347.398438 -358.863281 340.929688 -342.941406 334.046875 -327.234375 C 262.140625 -164.429688 200.4375 -24.734375 148.9375 91.859375 C 136.925781 94.046875 134.488281 86.945312 141.625 70.5625 C 154.988281 35.03125 178.425781 -21.5 211.9375 -99.03125 C 245.457031 -176.570312 279.609375 -253.859375 314.390625 -330.890625 C 321.441406 -346.597656 327.910156 -362.476562 333.796875 -378.53125 C 333.960938 -379.28125 334.253906 -380.035156 334.671875 -380.796875 C 335.929688 -383.734375 336.976562 -386.921875 337.8125 -390.359375 C 338.65625 -393.804688 338.785156 -397.546875 338.203125 -401.578125 C 332.828125 -400.660156 327.957031 -399.109375 323.59375 -396.921875 C 322.414062 -396.503906 321.363281 -396.125 320.4375 -395.78125 C 279.4375 -378.726562 236.613281 -356.53125 191.96875 -329.1875 C 147.320312 -301.84375 108.492188 -273.304688 75.484375 -243.578125 C 68.421875 -237.109375 61.570312 -230.363281 54.9375 -223.34375 C 48.300781 -216.332031 42.085938 -208.835938 36.296875 -200.859375 C 29.828125 -192.367188 25.035156 -182.957031 21.921875 -172.625 C 16.210938 -153.394531 21.925781 -138.78125 39.0625 -128.78125 C 51.070312 -121.976562 63.039062 -117.421875 74.96875 -115.109375 C 86.90625 -112.796875 98.144531 -111.722656 108.6875 -111.890625 C 119.226562 -112.054688 128.363281 -112.601562 136.09375 -113.53125 C 139.28125 -113.695312 142.050781 -113.90625 144.40625 -114.15625 C 145.914062 -114.332031 147.445312 -114.269531 149 -113.96875 C 150.550781 -113.675781 151.914062 -112.816406 153.09375 -111.390625 C 154.945312 -108.785156 152.53125 -106.789062 145.84375 -105.40625 C 139.164062 -104.019531 130.050781 -103.328125 118.5 -103.328125 C 106.957031 -103.328125 94.71875 -104.039062 81.78125 -105.46875 C 58.84375 -108.65625 41.035156 -113.566406 28.359375 -120.203125 C 20.546875 -124.066406 14.078125 -129.445312 8.953125 -136.34375 C 2.984375 -144.65625 0.671875 -153.769531 2.015625 -163.6875 C 3.273438 -174.101562 6.507812 -183.71875 11.71875 -192.53125 C 20.375 -206.988281 30.625 -220.007812 42.46875 -231.59375 C 63.132812 -252.851562 87.140625 -273.414062 114.484375 -293.28125 C 141.828125 -313.144531 170.15625 -331.539062 199.46875 -348.46875 C 228.789062 -365.394531 256.765625 -380.160156 283.390625 -392.765625 C 295.566406 -398.304688 307.914062 -403.472656 320.4375 -408.265625 C 326.394531 -410.617188 332.609375 -412.253906 339.078125 -413.171875 C 340.929688 -413.429688 342.570312 -413.429688 344 -413.171875 C 356.007812 -413.765625 361.007812 -407.675781 359 -394.90625 C 357.738281 -388.101562 355.890625 -381.46875 353.453125 -375 Z M 353.453125 -375 "/></g></g></g><g fill="#ffffff" fill-opacity="1"><g transform="translate(893.802114, 434.710236)"><g><path d="M 99.796875 -62.875 C 101.140625 -61.195312 99.457031 -58.128906 94.75 -53.671875 C 90.050781 -49.222656 85.054688 -45.484375 79.765625 -42.453125 C 74.472656 -39.429688 68.335938 -36.410156 61.359375 -33.390625 C 56.742188 -31.378906 51.832031 -30.707031 46.625 -31.375 C 41.414062 -32.050781 38.8125 -35.203125 38.8125 -40.828125 C 38.8125 -46.453125 40.113281 -52.035156 42.71875 -57.578125 C 45.320312 -63.296875 45.890625 -66.238281 44.421875 -66.40625 C 42.953125 -66.570312 39.90625 -65.1875 35.28125 -62.25 C 23.269531 -54.351562 12.097656 -45.320312 1.765625 -35.15625 C -1.003906 -31.789062 -4.535156 -29.941406 -8.828125 -29.609375 C -11.003906 -29.609375 -12.703125 -30.300781 -13.921875 -31.6875 C -15.140625 -33.070312 -15.285156 -34.5625 -14.359375 -36.15625 C -6.972656 -49.851562 0.5 -63.378906 8.0625 -76.734375 C 9.738281 -79.503906 12.257812 -81.226562 15.625 -81.90625 C 17.050781 -82.15625 18.375 -81.710938 19.59375 -80.578125 C 20.8125 -79.441406 21.421875 -78.160156 21.421875 -76.734375 C 21.253906 -75.390625 20.707031 -73.796875 19.78125 -71.953125 C 19.363281 -70.859375 18.960938 -69.804688 18.578125 -68.796875 C 18.203125 -67.785156 18.078125 -66.941406 18.203125 -66.265625 C 18.328125 -65.597656 18.851562 -65.394531 19.78125 -65.65625 C 21.039062 -66.320312 22.300781 -67.035156 23.5625 -67.796875 C 26.757812 -69.640625 29.828125 -71.398438 32.765625 -73.078125 C 35.367188 -74.597656 38.097656 -75.941406 40.953125 -77.109375 C 43.804688 -78.285156 46.789062 -79.085938 49.90625 -79.515625 C 54.9375 -79.847656 58.503906 -78.710938 60.609375 -76.109375 C 62.710938 -73.503906 62.960938 -69.890625 61.359375 -65.265625 C 59.679688 -61.066406 57.921875 -56.910156 56.078125 -52.796875 C 53.804688 -48.929688 53.425781 -45.988281 54.9375 -43.96875 C 56.445312 -41.957031 63.460938 -44.269531 75.984375 -50.90625 L 85.4375 -56.453125 C 94.34375 -62.160156 99.128906 -64.300781 99.796875 -62.875 Z M 99.796875 -62.875 "/></g></g></g><g fill="#ffffff" fill-opacity="1"><g transform="translate(986.163806, 434.710236)"><g><path d="M 99.796875 -62.875 C 101.140625 -61.195312 99.457031 -58.128906 94.75 -53.671875 C 90.050781 -49.222656 85.054688 -45.484375 79.765625 -42.453125 C 74.472656 -39.429688 68.335938 -36.410156 61.359375 -33.390625 C 56.742188 -31.378906 51.832031 -30.707031 46.625 -31.375 C 41.414062 -32.050781 38.8125 -35.203125 38.8125 -40.828125 C 38.8125 -46.453125 40.113281 -52.035156 42.71875 -57.578125 C 45.320312 -63.296875 45.890625 -66.238281 44.421875 -66.40625 C 42.953125 -66.570312 39.90625 -65.1875 35.28125 -62.25 C 23.269531 -54.351562 12.097656 -45.320312 1.765625 -35.15625 C -1.003906 -31.789062 -4.535156 -29.941406 -8.828125 -29.609375 C -11.003906 -29.609375 -12.703125 -30.300781 -13.921875 -31.6875 C -15.140625 -33.070312 -15.285156 -34.5625 -14.359375 -36.15625 C -6.972656 -49.851562 0.5 -63.378906 8.0625 -76.734375 C 9.738281 -79.503906 12.257812 -81.226562 15.625 -81.90625 C 17.050781 -82.15625 18.375 -81.710938 19.59375 -80.578125 C 20.8125 -79.441406 21.421875 -78.160156 21.421875 -76.734375 C 21.253906 -75.390625 20.707031 -73.796875 19.78125 -71.953125 C 19.363281 -70.859375 18.960938 -69.804688 18.578125 -68.796875 C 18.203125 -67.785156 18.078125 -66.941406 18.203125 -66.265625 C 18.328125 -65.597656 18.851562 -65.394531 19.78125 -65.65625 C 21.039062 -66.320312 22.300781 -67.035156 23.5625 -67.796875 C 26.757812 -69.640625 29.828125 -71.398438 32.765625 -73.078125 C 35.367188 -74.597656 38.097656 -75.941406 40.953125 -77.109375 C 43.804688 -78.285156 46.789062 -79.085938 49.90625 -79.515625 C 54.9375 -79.847656 58.503906 -78.710938 60.609375 -76.109375 C 62.710938 -73.503906 62.960938 -69.890625 61.359375 -65.265625 C 59.679688 -61.066406 57.921875 -56.910156 56.078125 -52.796875 C 53.804688 -48.929688 53.425781 -45.988281 54.9375 -43.96875 C 56.445312 -41.957031 63.460938 -44.269531 75.984375 -50.90625 L 85.4375 -56.453125 C 94.34375 -62.160156 99.128906 -64.300781 99.796875 -62.875 Z M 99.796875 -62.875 "/></g></g></g><g fill="#ffffff" fill-opacity="1"><g transform="translate(1078.525497, 434.710236)"><g><path d="M 20.03125 -29.859375 L 19.65625 -29.859375 C 7.476562 -30.023438 -0.539062 -32.734375 -4.40625 -37.984375 C -8.269531 -43.234375 -8.101562 -50.226562 -3.90625 -58.96875 C -0.375 -65.601562 4.078125 -71.398438 9.453125 -76.359375 C 11.296875 -78.035156 13.179688 -79.378906 15.109375 -80.390625 C 17.046875 -81.398438 19.234375 -81.90625 21.671875 -81.90625 C 23.097656 -82.15625 24.738281 -81.90625 26.59375 -81.15625 C 27.175781 -80.976562 27.765625 -80.765625 28.359375 -80.515625 C 29.785156 -80.765625 31.171875 -81.226562 32.515625 -81.90625 C 32.847656 -82.15625 33.304688 -82.363281 33.890625 -82.53125 C 36.660156 -83.625 39.601562 -84.085938 42.71875 -83.921875 C 43.976562 -83.921875 45.28125 -83.921875 46.625 -83.921875 C 51.582031 -83.160156 55.320312 -81.078125 57.84375 -77.671875 C 60.363281 -74.273438 61.242188 -70.140625 60.484375 -65.265625 C 60.066406 -62.328125 59.144531 -59.554688 57.71875 -56.953125 C 48.050781 -39.648438 35.742188 -30.617188 20.796875 -29.859375 Z M 39.9375 -74.96875 C 33.300781 -75.226562 27.398438 -73.316406 22.234375 -69.234375 C 17.066406 -65.160156 13.222656 -60.476562 10.703125 -55.1875 C 8.191406 -49.894531 7.5 -45.546875 8.625 -42.140625 C 9.757812 -38.742188 13.269531 -37.800781 19.15625 -39.3125 C 25.789062 -41.332031 31.648438 -45.113281 36.734375 -50.65625 C 41.816406 -56.195312 44.921875 -61.46875 46.046875 -66.46875 C 47.179688 -71.46875 45.144531 -74.300781 39.9375 -74.96875 Z M 39.9375 -74.96875 "/></g></g></g><g fill="#ffffff" fill-opacity="1"><g transform="translate(1145.434194, 434.710236)"><g><path d="M 90.84375 -65.65625 C 91.269531 -65.65625 91.753906 -65.546875 92.296875 -65.328125 C 92.847656 -65.117188 93.289062 -64.847656 93.625 -64.515625 C 94.800781 -63.421875 94.925781 -62.117188 94 -60.609375 C 92.820312 -59.347656 91.6875 -58.253906 90.59375 -57.328125 C 84.125 -51.367188 76.941406 -46.375 69.046875 -42.34375 C 56.617188 -36.039062 42.925781 -32.804688 27.96875 -32.640625 C 22.425781 -32.472656 16.71875 -33.394531 10.84375 -35.40625 C 0.0820312 -39.601562 -4.285156 -47.375 -2.265625 -58.71875 C 0.171875 -69.21875 6.09375 -77.929688 15.5 -84.859375 C 24.90625 -91.796875 34.984375 -94.800781 45.734375 -93.875 C 47.753906 -93.539062 49.769531 -93.078125 51.78125 -92.484375 C 53.632812 -91.734375 55.019531 -90.617188 55.9375 -89.140625 C 56.863281 -87.671875 56.953125 -86.476562 56.203125 -85.5625 C 54.179688 -83.375 51.867188 -82.828125 49.265625 -83.921875 C 45.398438 -85.597656 41.847656 -86.054688 38.609375 -85.296875 C 35.378906 -84.546875 32.128906 -82.785156 28.859375 -80.015625 C 25.660156 -77.578125 22.210938 -74.046875 18.515625 -69.421875 C 14.828125 -64.804688 12.476562 -60.144531 11.46875 -55.4375 C 10.457031 -50.738281 12.554688 -46.914062 17.765625 -43.96875 C 23.648438 -41.363281 29.65625 -40.738281 35.78125 -42.09375 C 51.070312 -45.195312 65.269531 -50.988281 78.375 -59.46875 C 79.550781 -60.0625 80.601562 -60.734375 81.53125 -61.484375 C 82.957031 -62.578125 84.40625 -63.476562 85.875 -64.1875 C 87.34375 -64.90625 89 -65.394531 90.84375 -65.65625 Z M 90.84375 -65.65625 "/></g></g></g><g fill="#ffffff" fill-opacity="1"><g transform="translate(1229.479574, 434.710236)"><g><path d="M 71.8125 -48.375 C 66.945312 -43.59375 61.28125 -39.5 54.8125 -36.09375 C 48.34375 -32.695312 42.921875 -30.472656 38.546875 -29.421875 C 34.179688 -28.367188 29.691406 -27.757812 25.078125 -27.59375 C 17.679688 -27.257812 10.875 -28.269531 4.65625 -30.625 C -5.5 -34.738281 -9.023438 -42.59375 -5.921875 -54.1875 C -2.984375 -64.175781 2.976562 -71.984375 11.96875 -77.609375 C 20.957031 -83.242188 30.238281 -85.976562 39.8125 -85.8125 C 39.8125 -85.8125 39.894531 -85.8125 40.0625 -85.8125 C 42.5 -85.976562 44.8125 -85.8125 47 -85.3125 C 50.695312 -83.96875 53.046875 -81.78125 54.046875 -78.75 C 55.054688 -75.726562 54.390625 -72.367188 52.046875 -68.671875 C 46.660156 -60.523438 39.347656 -55.988281 30.109375 -55.0625 C 23.984375 -54.476562 18.0625 -54.773438 12.34375 -55.953125 C 11.25 -56.117188 10.28125 -55.820312 9.4375 -55.0625 C 8.601562 -54.3125 8.101562 -53.390625 7.9375 -52.296875 C 6.257812 -45.066406 8.484375 -40.445312 14.609375 -38.4375 C 22.171875 -35.832031 30.03125 -35.832031 38.1875 -38.4375 C 47.59375 -41.375 56.535156 -46.914062 65.015625 -55.0625 C 73.503906 -63.207031 78.398438 -67.007812 79.703125 -66.46875 C 81.003906 -65.925781 81.398438 -64.351562 80.890625 -61.75 C 79.710938 -57.625 76.6875 -53.164062 71.8125 -48.375 Z M 18.140625 -68.671875 C 17.640625 -68.085938 17.285156 -67.4375 17.078125 -66.71875 C 16.867188 -66.007812 17.140625 -65.359375 17.890625 -64.765625 C 20.828125 -63.085938 24.019531 -62.476562 27.46875 -62.9375 C 30.914062 -63.40625 33.832031 -64.707031 36.21875 -66.84375 C 38.613281 -68.988281 39.644531 -71.613281 39.3125 -74.71875 C 39.0625 -75.8125 38.472656 -76.503906 37.546875 -76.796875 C 36.617188 -77.097656 35.695312 -77.160156 34.78125 -76.984375 C 28.5625 -75.898438 23.015625 -73.128906 18.140625 -68.671875 Z M 18.140625 -68.671875 "/></g></g></g><g fill="#ffffff" fill-opacity="1"><g transform="translate(1302.814562, 434.710236)"><g><path d="M 99.796875 -62.875 C 101.140625 -61.195312 99.457031 -58.128906 94.75 -53.671875 C 90.050781 -49.222656 85.054688 -45.484375 79.765625 -42.453125 C 74.472656 -39.429688 68.335938 -36.410156 61.359375 -33.390625 C 56.742188 -31.378906 51.832031 -30.707031 46.625 -31.375 C 41.414062 -32.050781 38.8125 -35.203125 38.8125 -40.828125 C 38.8125 -46.453125 40.113281 -52.035156 42.71875 -57.578125 C 45.320312 -63.296875 45.890625 -66.238281 44.421875 -66.40625 C 42.953125 -66.570312 39.90625 -65.1875 35.28125 -62.25 C 23.269531 -54.351562 12.097656 -45.320312 1.765625 -35.15625 C -1.003906 -31.789062 -4.535156 -29.941406 -8.828125 -29.609375 C -11.003906 -29.609375 -12.703125 -30.300781 -13.921875 -31.6875 C -15.140625 -33.070312 -15.285156 -34.5625 -14.359375 -36.15625 C -6.972656 -49.851562 0.5 -63.378906 8.0625 -76.734375 C 9.738281 -79.503906 12.257812 -81.226562 15.625 -81.90625 C 17.050781 -82.15625 18.375 -81.710938 19.59375 -80.578125 C 20.8125 -79.441406 21.421875 -78.160156 21.421875 -76.734375 C 21.253906 -75.390625 20.707031 -73.796875 19.78125 -71.953125 C 19.363281 -70.859375 18.960938 -69.804688 18.578125 -68.796875 C 18.203125 -67.785156 18.078125 -66.941406 18.203125 -66.265625 C 18.328125 -65.597656 18.851562 -65.394531 19.78125 -65.65625 C 21.039062 -66.320312 22.300781 -67.035156 23.5625 -67.796875 C 26.757812 -69.640625 29.828125 -71.398438 32.765625 -73.078125 C 35.367188 -74.597656 38.097656 -75.941406 40.953125 -77.109375 C 43.804688 -78.285156 46.789062 -79.085938 49.90625 -79.515625 C 54.9375 -79.847656 58.503906 -78.710938 60.609375 -76.109375 C 62.710938 -73.503906 62.960938 -69.890625 61.359375 -65.265625 C 59.679688 -61.066406 57.921875 -56.910156 56.078125 -52.796875 C 53.804688 -48.929688 53.425781 -45.988281 54.9375 -43.96875 C 56.445312 -41.957031 63.460938 -44.269531 75.984375 -50.90625 L 85.4375 -56.453125 C 94.34375 -62.160156 99.128906 -64.300781 99.796875 -62.875 Z M 99.796875 -62.875 "/></g></g></g><g fill="#ffffff" fill-opacity="1"><g transform="translate(1395.176253, 434.710236)"><g><path d="M 78.75 -60.859375 C 67.5 -47.585938 56.472656 -37.800781 45.671875 -31.5 C 34.878906 -25.195312 23.328125 -23.117188 11.015625 -25.265625 C -1.285156 -27.410156 -6.34375 -35.664062 -4.15625 -50.03125 C -2.644531 -57.25 -0.585938 -64.300781 2.015625 -71.1875 C 8.484375 -87.238281 15.035156 -103.203125 21.671875 -119.078125 C 23.859375 -124.785156 26.171875 -130.539062 28.609375 -136.34375 C 29.191406 -137.601562 29.734375 -138.863281 30.234375 -140.125 C 31.160156 -142.21875 32.085938 -144.359375 33.015625 -146.546875 C 34.359375 -150.242188 32.890625 -152.175781 28.609375 -152.34375 C 26.171875 -152.34375 23.773438 -152.34375 21.421875 -152.34375 C 20.328125 -152.34375 19.109375 -152.34375 17.765625 -152.34375 C 16.503906 -152.175781 15.203125 -152.007812 13.859375 -151.84375 C 11.671875 -151.675781 9.503906 -151.59375 7.359375 -151.59375 C 5.222656 -151.59375 3.234375 -152.132812 1.390625 -153.21875 C 0.878906 -153.394531 0.476562 -153.710938 0.1875 -154.171875 C -0.101562 -154.628906 -0.25 -155.15625 -0.25 -155.75 C -0.0820312 -156.082031 0.1875 -156.476562 0.5625 -156.9375 C 0.945312 -157.40625 1.429688 -157.722656 2.015625 -157.890625 C 3.859375 -158.640625 5.789062 -159.1875 7.8125 -159.53125 C 13.019531 -159.78125 18.1875 -159.988281 23.3125 -160.15625 C 25.320312 -160.15625 27.085938 -160.15625 28.609375 -160.15625 C 31.960938 -160.15625 34.457031 -160.28125 36.09375 -160.53125 C 37.738281 -160.78125 39.0625 -161.660156 40.0625 -163.171875 C 41.070312 -164.691406 42.25 -167.003906 43.59375 -170.109375 C 44.351562 -171.785156 45.28125 -173.632812 46.375 -175.65625 C 49.144531 -181.53125 51.914062 -187.535156 54.6875 -193.671875 C 55.945312 -196.441406 57.25 -199.128906 58.59375 -201.734375 C 59.6875 -204.335938 61.410156 -206.351562 63.765625 -207.78125 C 66.023438 -208.875 68 -208.789062 69.6875 -207.53125 C 70.1875 -207.195312 70.582031 -206.648438 70.875 -205.890625 C 71.164062 -205.140625 71.3125 -204.46875 71.3125 -203.875 C 71.3125 -200.601562 70.472656 -197.367188 68.796875 -194.171875 C 68.460938 -193.503906 68.085938 -192.707031 67.671875 -191.78125 C 66.578125 -188.757812 65.398438 -185.691406 64.140625 -182.578125 C 61.703125 -176.867188 59.390625 -171.03125 57.203125 -165.0625 C 56.617188 -163.976562 56.597656 -163.015625 57.140625 -162.171875 C 57.691406 -161.328125 58.507812 -160.90625 59.59375 -160.90625 C 65.5625 -160.738281 71.398438 -160.65625 77.109375 -160.65625 C 80.054688 -160.65625 83 -160.65625 85.9375 -160.65625 C 95.175781 -160.488281 98.875 -159.1875 97.03125 -156.75 C 95.769531 -155.320312 94.398438 -154.503906 92.921875 -154.296875 C 91.453125 -154.085938 89.960938 -154.109375 88.453125 -154.359375 C 87.535156 -154.359375 86.613281 -154.359375 85.6875 -154.359375 C 76.28125 -153.773438 66.957031 -153.394531 57.71875 -153.21875 C 53.425781 -153.21875 50.566406 -151.285156 49.140625 -147.421875 C 47.628906 -143.734375 46.160156 -140.039062 44.734375 -136.34375 C 42.628906 -131.46875 40.65625 -126.71875 38.8125 -122.09375 C 36.957031 -117.726562 35.109375 -113.320312 33.265625 -108.875 C 28.472656 -97.613281 23.851562 -86.3125 19.40625 -74.96875 C 16.632812 -67.582031 14.453125 -60.023438 12.859375 -52.296875 C 9.328125 -38.265625 14.742188 -32.882812 29.109375 -36.15625 C 43.222656 -39.519531 58.007812 -49.6875 73.46875 -66.65625 C 80.1875 -70.9375 81.945312 -69.003906 78.75 -60.859375 Z M 78.75 -60.859375 "/></g></g></g></svg>